<?xml version="1.0" encoding="iso-8859-1"?>
<!-- Generator: Adobe Illustrator 19.0.0, SVG Export Plug-In . SVG Version: 6.00 Build 0)  -->
<svg version="1.1" id="Layer_1" xmlns="http://www.w3.org/2000/svg" xmlns:xlink="http://www.w3.org/1999/xlink" x="0px" y="0px"
	 viewBox="0 0 322 322" style="enable-background:new 0 0 322 322;" xml:space="preserve">
<g transform="translate(0 -562.36)">
	<g>
		<g>
			<path d="M161.3,562.36C72.5,562.36,0,634.86,0,723.66c0,88.7,72.5,160.7,161.3,160.7c88.7,0,160.7-72,160.7-160.7
				C322,634.86,250,562.36,161.3,562.36z M161.3,856.46c-74.1,0-133.4-59.4-133.4-132.9c-0.1-74,59.3-133.4,133.4-133.4l0,0
				c73.5,0,132.9,59.4,132.9,133.4C294.2,797.06,234.8,856.46,161.3,856.46z"/>
			<path d="M235.9,651.66L235.9,651.66c-4.2,0-8.4,2.1-11,5.3L135,760.36l-38.3-38.3c-13.1-13.1-33.1,6.8-20,20l48.9,48.9
				c5.8,5.8,15.2,5.3,20.5-0.5l100.3-115C254.2,666.36,247.9,651.66,235.9,651.66z"/>
		</g>
	</g>
</g>
<g>
</g>
<g>
</g>
<g>
</g>
<g>
</g>
<g>
</g>
<g>
</g>
<g>
</g>
<g>
</g>
<g>
</g>
<g>
</g>
<g>
</g>
<g>
</g>
<g>
</g>
<g>
</g>
<g>
</g>
</svg>
